<?xml version="1.0" encoding="utf-8"?>
<!-- Generator: Adobe Illustrator 16.0.4, SVG Export Plug-In . SVG Version: 6.00 Build 0)  -->
<!DOCTYPE svg PUBLIC "-//W3C//DTD SVG 1.1//EN" "http://www.w3.org/Graphics/SVG/1.1/DTD/svg11.dtd">
<svg version="1.1" id="レイヤー_1" xmlns="http://www.w3.org/2000/svg" xmlns:xlink="http://www.w3.org/1999/xlink" x="0px"
	 y="0px" width="384.526px" height="57.908px" viewBox="0 0 384.526 57.908" enable-background="new 0 0 384.526 57.908"
	 xml:space="preserve">
<g>
	<g>
		<path fill="#411D0B" d="M20.055,37.384L4.341,51.247L0,41.765c6.297-4.62,9.844-7.561,16.264-13.501L20.055,37.384z
			 M37.481,18.842c-7.581-3.48-13.94-5.34-21.339-6.541l3.669-8.4c3.852,0.84,11.8,2.46,21.278,6.3L37.481,18.842z M31.367,19.682
			c-0.61,0.781-1.895,2.341-1.895,4.142c0,1.319,0.428,1.86,4.341,6.42c4.278,5.041,7.398,8.642,7.398,14.162
			c0,4.32-1.957,11.702-13.391,11.702c-4.341,0-7.827-1.021-9.232-1.44l-1.04-10.562c5.625,2.461,8.744,2.642,9.661,2.642
			c0.672,0,3.179-0.12,3.179-2.82c0-1.86-1.345-3.48-4.646-7.441c-4.77-5.7-6.36-7.621-6.36-12.002c0-4.32,2.202-7.141,3.486-8.701
			L31.367,19.682z M48.548,47.167c-3.363-7.022-6.604-12.303-10.823-17.523l7.766-4.92c4.402,5.34,8.133,10.681,11.556,17.282
			L48.548,47.167z"/>
		<path fill="#411D0B" d="M74.666,4.741l-1.222,31.024c-0.124,3.721-0.429,10.861,8.437,10.861c9.049,0,14.309-6.9,18.16-18.183
			l8.927,4.86c-5.809,15.362-14.247,23.043-27.453,23.043c-9.661,0-16.999-4.92-18.16-13.861c-0.122-0.9-0.367-2.941-0.244-6.602
			L64.21,4.141L74.666,4.741z M87.138,9.542c3.242,3.48,5.565,7.021,8.012,11.281l-5.016,3.901
			c-2.689-5.042-4.279-7.501-7.826-11.582L87.138,9.542z M95.209,4.441c3.607,3.6,6.237,7.681,8.315,11.101l-5.074,3.841
			c-2.751-4.86-4.219-7.141-7.948-11.221L95.209,4.441z"/>
		<path fill="#411D0B" d="M142.79,3.481c1.957,2.64,2.874,4.08,5.075,7.561c1.038-0.18,2.262-0.36,4.157-0.36
			c8.683,0,16.021,4.981,16.021,14.821c0,11.582-11.128,16.083-22.073,15.483l-2.386-9.362c1.163,0.181,2.508,0.36,4.097,0.36
			c5.504,0,10.762-1.98,10.762-6.9c0-3.001-2.323-5.641-6.297-5.641c-4.647,0-8.927,1.8-17.122,5.281
			c5.016,12.841,8.439,23.943,10.274,30.004l-9.845,2.88c-2.752-9.781-5.688-19.562-9.417-29.044c-1.468,0.66-7.764,3.42-9.049,4.02
			l-4.158-8.82c1.529-0.66,8.316-3.48,9.661-4.021c-1.59-3.96-3.362-7.861-5.198-11.762l9.233-3.66
			c2.385,5.221,3.301,7.44,5.075,11.762c1.528-0.601,3.058-1.201,6.848-2.521c-0.978-1.561-1.468-2.341-3.607-5.4L142.79,3.481z"/>
		<path fill="#411D0B" d="M211.097,7.621l8.864,11.822c-4.157,14.462-11.8,29.944-33.322,38.465l-6.786-8.101
			c7.459-2.581,14.185-6.841,19.565-12.542c7.153-7.561,9.6-15.543,10.883-20.463h-16.264c-2.262,3.661-6.114,9.361-14.062,15.962
			l-7.644-6.48c8.132-6.481,12.534-12.662,15.592-18.663H211.097z M215.376,1.021c2.568,2.76,4.402,5.581,7.215,10.681l-4.28,2.821
			c-2.262-4.561-3.729-6.901-6.908-10.741L215.376,1.021z M224.425,0c2.812,3.361,4.404,6.121,6.85,10.982l-4.342,2.82
			c-2.079-4.681-3.547-7.141-6.543-11.222L224.425,0z"/>
		<path fill="#411D0B" d="M245.101,5.641v14.642c0,12.301-1.224,25.023-13.207,36.484l-7.337-7.381
			c8.988-9.121,10.516-17.882,10.516-28.684V5.641H245.101z M259.898,4.8v37.025c6.48-4.021,11.068-9.301,14.308-14.042l6.726,6.78
			c-4.586,6.302-14.124,17.523-30.938,21.544V4.8H259.898z"/>
		<path fill="#411D0B" d="M326.696,25.744v9.301h-39.779v-9.301H326.696z"/>
		<path fill="#411D0B" d="M364.41,9.121l8.682,10.022c-2.263,11.761-7.767,27.784-29.41,37.565l-6.542-8.101
			c21.521-8.641,24.58-24.724,25.619-30.064h-34.24V9.121H364.41z M384.526,8.162c0,4.5-3.729,8.161-8.317,8.161
			c-4.585,0-8.314-3.662-8.314-8.161c0-4.561,3.729-8.162,8.314-8.162C380.735,0,384.526,3.601,384.526,8.162z M372.052,8.162
			c0,2.22,1.834,4.08,4.156,4.08c2.264,0,4.159-1.8,4.159-4.08c0-2.341-1.957-4.081-4.159-4.081
			C373.947,4.081,372.052,5.881,372.052,8.162z"/>
	</g>
</g>
</svg>
