<?xml version="1.0" encoding="utf-8"?>
<!-- Generator: Adobe Illustrator 16.0.4, SVG Export Plug-In . SVG Version: 6.00 Build 0)  -->
<!DOCTYPE svg PUBLIC "-//W3C//DTD SVG 1.1//EN" "http://www.w3.org/Graphics/SVG/1.1/DTD/svg11.dtd">
<svg version="1.1" id="レイヤー_1" xmlns="http://www.w3.org/2000/svg" xmlns:xlink="http://www.w3.org/1999/xlink" x="0px"
	 y="0px" width="251.514px" height="65.844px" viewBox="0 0 251.514 65.844" enable-background="new 0 0 251.514 65.844"
	 xml:space="preserve">
<g>
	<path fill="#FFFFFF" d="M24.676,19.757c2.76,3.479,4.879,6.998,7.079,11.678l5.559-3.438c-2.238-4.399-4.679-7.958-7.559-11.519
		L24.676,19.757z"/>
	<path fill="#FFFFFF" d="M26.875,6.799C20.676,4.239,15.478,3.16,12.958,2.6l-2.4,5.599c4.839,0.801,8.999,2.04,13.958,4.359
		L26.875,6.799z"/>
	<path fill="#FFFFFF" d="M10.638,18.836C6.439,22.796,4.119,24.756,0,27.835l2.839,6.318l10.278-9.238L10.638,18.836z"/>
	<path fill="#FFFFFF" d="M19.277,15.877c0-1.2,0.841-2.24,1.24-2.761l-5.559-2.6c-0.84,1.04-2.28,2.919-2.28,5.799
		c0,2.92,1.04,4.2,4.159,7.999c2.16,2.641,3.04,3.72,3.04,4.959c0,1.8-1.641,1.88-2.08,1.88c-0.601,0-2.641-0.119-6.319-1.76
		l0.681,7.039c0.92,0.28,3.199,0.961,6.038,0.961c7.479,0,8.76-4.92,8.76-7.799c0-3.68-2.04-6.08-4.839-9.438
		C19.557,17.116,19.277,16.757,19.277,15.877z"/>
	<path fill="#FFFFFF" d="M62.236,13.877c-1.6-2.839-3.119-5.199-5.238-7.52l-3.16,2.399c2.319,2.72,3.358,4.358,5.119,7.719
		L62.236,13.877z"/>
	<path fill="#FFFFFF" d="M53.557,31.074c-5.799,0-5.599-4.759-5.519-7.238l0.8-20.676l-6.839-0.4l-0.721,21.157
		c-0.08,2.438,0.08,3.799,0.16,4.398c0.76,5.959,5.56,9.238,11.878,9.238c8.64,0,14.158-5.119,17.957-15.356l-5.839-3.239
		C62.916,26.476,59.476,31.074,53.557,31.074z"/>
	<path fill="#FFFFFF" d="M67.715,10.358c-1.36-2.279-3.08-5-5.439-7.398l-3.079,2.479c2.439,2.719,3.399,4.239,5.199,7.479
		L67.715,10.358z"/>
	<path fill="#FFFFFF" d="M99.436,7.119c-1.24,0-2.04,0.118-2.719,0.239c-1.44-2.319-2.04-3.279-3.319-5.04l-5.199,3.12
		c1.399,2.039,1.721,2.56,2.359,3.6c-2.479,0.88-3.479,1.279-4.479,1.68c-1.16-2.879-1.761-4.359-3.32-7.839L76.72,5.319
		c1.2,2.6,2.359,5.199,3.399,7.838c-0.881,0.361-5.319,2.24-6.319,2.681l2.72,5.879c0.84-0.4,4.959-2.24,5.919-2.68
		c2.439,6.317,4.359,12.837,6.159,19.356l6.439-1.92c-1.2-4.04-3.439-11.438-6.72-19.996c5.359-2.32,8.159-3.521,11.198-3.521
		c2.6,0,4.12,1.76,4.12,3.76c0,3.279-3.439,4.599-7.039,4.599c-1.04,0-1.92-0.12-2.68-0.24l1.56,6.239
		c7.159,0.399,14.438-2.6,14.438-10.317C109.914,10.438,105.115,7.119,99.436,7.119z"/>
	<path fill="#FFFFFF" d="M122.918,5.079c-2,3.999-4.879,8.117-10.198,12.438l4.999,4.319c5.199-4.399,7.719-8.199,9.199-10.64
		h10.638c-0.84,3.28-2.438,8.6-7.118,13.639c-3.52,3.799-7.919,6.639-12.798,8.357l4.439,5.399
		c14.077-5.68,19.075-15.998,21.797-25.637l-5.799-7.878h-15.159V5.079z"/>
	<path fill="#FFFFFF" d="M138.275,2.52c2.08,2.561,3.039,4.12,4.521,7.159l2.799-1.88c-1.84-3.399-3.039-5.279-4.719-7.119
		L138.275,2.52z"/>
	<path fill="#FFFFFF" d="M151.273,7.319c-1.6-3.239-2.64-5.08-4.479-7.318l-2.641,1.719c1.96,2.72,2.92,4.359,4.279,7.479
		L151.273,7.319z"/>
	<path fill="#FFFFFF" d="M169.996,27.875V3.198h-6.479v34.195c10.998-2.68,17.236-10.16,20.236-14.358l-4.399-4.52
		C177.234,21.676,174.235,25.196,169.996,27.875z"/>
	<path fill="#FFFFFF" d="M153.759,13.797c0,7.199-1,13.038-6.879,19.117l4.8,4.919c7.838-7.639,8.638-16.117,8.638-24.315V3.759
		h-6.559V13.797z"/>
	<rect x="187.668" y="17.156" fill="#FFFFFF" width="26.02" height="6.199"/>
	<path fill="#FFFFFF" d="M214.879,6.079v6.278h22.396c-0.68,3.56-2.68,14.277-16.758,20.036l4.279,5.399
		c14.158-6.52,17.758-17.197,19.237-25.035l-5.68-6.679H214.879z"/>
	<path fill="#FFFFFF" d="M246.073,0c-3,0-5.438,2.398-5.438,5.438c0,3,2.438,5.439,5.438,5.439s5.439-2.44,5.439-5.439
		C251.514,2.399,249.033,0,246.073,0z M246.073,8.157c-1.52,0-2.72-1.238-2.72-2.719c0-1.52,1.239-2.72,2.72-2.72
		c1.439,0,2.72,1.16,2.72,2.72C248.793,6.958,247.554,8.157,246.073,8.157z"/>
</g>
<g>
	<rect x="39.241" y="58.314" fill="#FFFFFF" width="11.197" height="2.58"/>
	<rect x="193.818" y="58.314" fill="#FFFFFF" width="11.197" height="2.58"/>
	<path fill="#FFFFFF" d="M76.25,57.022c-1.17-0.396-2.144-0.739-2.144-1.945c0-1.044,0.864-1.854,2.197-1.854
		c0.306,0,1.404,0,2.809,0.955l0.595-2.324c-1.099-0.611-2.214-0.953-3.476-0.953c-2.791,0-4.664,1.854-4.664,4.304
		c0,2.448,1.639,3.35,3.745,4.052c1.152,0.396,2.593,0.882,2.593,2.304c0,1.279-1.242,1.964-2.719,1.964
		c-0.937,0-2.089-0.253-3.457-1.226l-0.737,2.286c1.296,0.829,2.791,1.261,4.32,1.261c3.115,0,5.149-1.908,5.149-4.465
		C80.463,58.48,78.321,57.741,76.25,57.022z"/>
	<rect x="82.549" y="51.188" fill="#FFFFFF" width="2.593" height="14.368"/>
	<polygon fill="#FFFFFF" points="97.671,62.01 90.667,51.188 87.642,51.188 87.642,65.557 90.181,65.557 90.181,54.734 
		97.185,65.557 100.21,65.557 100.21,51.188 97.671,51.188 	"/>
	<path fill="#FFFFFF" d="M109.64,53.223c2.125,0,3.151,0.863,3.728,1.351l0.828-2.322c-1.387-0.918-2.917-1.351-4.556-1.351
		c-4.249,0-7.652,2.898-7.652,7.509c0,3.979,2.646,7.436,7.652,7.436c2.485,0,4.051-0.791,4.556-1.043v-2.719
		c-0.701,0.467-2.089,1.439-4.375,1.439c-3.709,0-5.293-2.558-5.293-5.149C104.527,55.545,106.381,53.223,109.64,53.223z"/>
	<polygon fill="#FFFFFF" points="118.549,59.272 124.545,59.272 124.545,57.004 118.549,57.004 118.549,53.51 125.121,53.51 
		125.121,51.188 116.01,51.188 116.01,65.557 125.355,65.557 125.355,63.234 118.549,63.234 	"/>
	<polygon fill="#FFFFFF" points="134.172,53.385 134.496,55.744 137.107,53.925 137.107,65.557 139.664,65.557 139.664,51.188 
		137.413,51.188 	"/>
	<path fill="#FFFFFF" d="M149.672,50.9c-2.953,0-5.096,2.195-5.096,5.023c0,2.952,2.25,4.699,4.682,4.699
		c1.638,0,2.466-0.722,3.061-1.226c-0.541,3.582-2.7,4.124-4.159,4.124c-0.559,0-1.225-0.073-2.089-0.415v2.377
		c0.324,0.108,1.026,0.359,2.16,0.359c4.431,0,6.808-3.564,6.808-8.317C155.037,51.512,151.13,50.9,149.672,50.9z M149.672,58.407
		c-1.369,0-2.559-0.918-2.559-2.538c0-1.297,0.92-2.646,2.61-2.646c1.549,0,2.685,1.135,2.685,2.629
		C152.408,57.417,151.076,58.407,149.672,58.407z"/>
	<path fill="#FFFFFF" d="M164.216,57.761c0.521-0.308,1.782-1.046,1.782-2.954c0-2.377-1.998-3.906-4.592-3.906
		c-1.691,0-3.204,0.611-4.466,1.746l0.9,2.232c0.899-0.99,2.089-1.656,3.512-1.656c1.008,0,2.144,0.521,2.144,1.783
		c0,0.846-0.612,1.891-2.413,1.891h-1.423v2.16h1.53c2.16,0,3.098,0.937,3.098,2.088c0,1.081-0.792,2.378-3.225,2.378
		c-2.214,0-3.438-0.812-3.906-1.136l-0.737,2.287c0.576,0.307,2.125,1.17,4.645,1.17c4.25,0,5.78-2.412,5.78-4.447
		C166.845,58.93,164.99,58.102,164.216,57.761z"/>
	<path fill="#FFFFFF" d="M176.096,57.761c0.522-0.308,1.783-1.046,1.783-2.954c0-2.377-1.999-3.906-4.592-3.906
		c-1.692,0-3.205,0.611-4.466,1.746l0.899,2.232c0.9-0.99,2.089-1.656,3.511-1.656c1.01,0,2.144,0.521,2.144,1.783
		c0,0.846-0.611,1.891-2.412,1.891h-1.422v2.16h1.528c2.161,0,3.099,0.937,3.099,2.088c0,1.081-0.793,2.378-3.224,2.378
		c-2.215,0-3.438-0.812-3.907-1.136l-0.738,2.287c0.576,0.307,2.125,1.17,4.646,1.17c4.249,0,5.779-2.412,5.779-4.447
		C178.725,58.93,176.87,58.102,176.096,57.761z"/>
</g>
</svg>
